<svg id="visual" viewBox="0 0 2560 1440" width="2560" height="1440"
    xmlns="http://www.w3.org/2000/svg" xmlns:xlink="http://www.w3.org/1999/xlink" version="1.1">
    <rect x="0" y="0" width="2560" height="1440" fill="#13131A"></rect>
    <defs>
        <linearGradient id="grad1_0" x1="43.8%" y1="0%" x2="100%" y2="100%">
            <stop offset="14.444444444444446%" stop-color="#9ca2dd" stop-opacity="1"></stop>
            <stop offset="85.55555555555554%" stop-color="#9ca2dd" stop-opacity="1"></stop>
        </linearGradient>
    </defs>
    <defs>
        <linearGradient id="grad1_1" x1="43.8%" y1="0%" x2="100%" y2="100%">
            <stop offset="14.444444444444446%" stop-color="#9ca2dd" stop-opacity="1"></stop>
            <stop offset="85.55555555555554%" stop-color="#13131a" stop-opacity="1"></stop>
        </linearGradient>
    </defs>
    <defs>
        <linearGradient id="grad2_0" x1="0%" y1="0%" x2="56.3%" y2="100%">
            <stop offset="14.444444444444446%" stop-color="#9ca2dd" stop-opacity="1"></stop>
            <stop offset="85.55555555555554%" stop-color="#9ca2dd" stop-opacity="1"></stop>
        </linearGradient>
    </defs>
    <defs>
        <linearGradient id="grad2_1" x1="0%" y1="0%" x2="56.3%" y2="100%">
            <stop offset="14.444444444444446%" stop-color="#13131a" stop-opacity="1"></stop>
            <stop offset="85.55555555555554%" stop-color="#9ca2dd" stop-opacity="1"></stop>
        </linearGradient>
    </defs>
    <g transform="translate(2560, 0)">
        <path
            d="M0 576C-99.4 559.5 -198.7 543 -287 497.1C-375.3 451.2 -452.5 375.8 -498.8 288C-545.2 200.2 -560.6 100.1 -576 0L0 0Z"
            fill="#535574"></path>
        <path
            d="M0 288C-49.7 279.8 -99.4 271.5 -143.5 248.5C-187.6 225.6 -226.3 187.9 -249.4 144C-272.6 100.1 -280.3 50.1 -288 0L0 0Z"
            fill="#9ca2dd"></path>
    </g>
    <g transform="translate(0, 1440)">
        <path
            d="M0 -576C100.7 -560.9 201.4 -545.8 288 -498.8C374.6 -451.8 447.1 -373 492.8 -284.5C538.4 -196 557.2 -98 576 0L0 0Z"
            fill="#535574"></path>
        <path
            d="M0 -288C50.3 -280.5 100.7 -272.9 144 -249.4C187.3 -225.9 223.6 -186.5 246.4 -142.3C269.2 -98 278.6 -49 288 0L0 0Z"
            fill="#9ca2dd"></path>
    </g>
</svg>